<svg width="356" height="300" viewBox="0 0 356 300" fill="none" xmlns="http://www.w3.org/2000/svg">
<path d="M170.184 51.2363L66.124 298.376H63.1906L72.3562 276.378L0 105.869L28.5309 105.486L76.7531 220.014L149.087 42.1946L134.017 33.1529L182.239 0L185.253 57.264L170.184 51.2363Z" fill="url(#paint0_linear_130_251)"/>
<path d="M167.438 189.945C167.384 190.212 167.251 190.453 167.037 190.667C166.876 190.828 166.662 190.908 166.394 190.908H140.786C140.679 190.908 140.572 190.962 140.465 191.069C140.411 191.122 140.384 191.202 140.384 191.309L138.859 203.752C138.859 204.02 138.966 204.154 139.18 204.154H155.958C156.226 204.154 156.44 204.261 156.6 204.475C156.761 204.636 156.815 204.85 156.761 205.117L155.798 212.904C155.744 213.172 155.61 213.413 155.396 213.627C155.236 213.787 155.022 213.867 154.754 213.867H137.976C137.708 213.867 137.575 214.001 137.575 214.269L135.969 227.274C135.969 227.541 136.076 227.675 136.29 227.675H161.819C162.407 227.675 162.702 227.996 162.702 228.639L161.738 236.426C161.685 236.693 161.551 236.934 161.337 237.148C161.176 237.309 160.962 237.389 160.695 237.389H124.65C124.382 237.389 124.168 237.309 124.008 237.148C123.847 236.934 123.794 236.693 123.847 236.426L130.51 182.158C130.564 181.89 130.671 181.676 130.831 181.515C131.045 181.301 131.286 181.194 131.554 181.194H167.518C167.786 181.194 168 181.301 168.16 181.515C168.375 181.676 168.455 181.89 168.401 182.158L167.438 189.945Z" fill="#C7B08B"/>
<path d="M189.144 238.031C183.578 238.031 179.189 236.533 175.978 233.536C172.767 230.539 171.161 226.525 171.161 221.494C171.161 220.209 171.215 219.219 171.322 218.524L173.57 199.979C174.051 196.126 175.309 192.728 177.343 189.784C179.377 186.841 182.026 184.566 185.29 182.96C188.555 181.355 192.194 180.552 196.208 180.552C201.774 180.552 206.163 181.997 209.374 184.887C212.638 187.777 214.271 191.631 214.271 196.447C214.271 197.036 214.217 197.919 214.11 199.096C214.003 199.632 213.655 199.926 213.067 199.979L203.915 200.541H203.754C203.219 200.541 203.005 200.247 203.112 199.658C203.166 199.337 203.192 198.882 203.192 198.294C203.192 195.832 202.443 193.878 200.945 192.433C199.5 190.988 197.519 190.266 195.004 190.266C192.221 190.266 189.866 191.149 187.94 192.915C186.066 194.628 184.969 196.875 184.648 199.658L182.24 219.005C182.186 219.326 182.16 219.781 182.16 220.37C182.16 222.778 182.882 224.705 184.327 226.15C185.772 227.595 187.779 228.318 190.348 228.318C193.131 228.318 195.459 227.461 197.332 225.749C199.205 224.036 200.329 221.788 200.704 219.005C200.811 218.417 201.159 218.122 201.747 218.122L210.819 218.524C211.086 218.524 211.3 218.604 211.461 218.764C211.622 218.871 211.675 219.059 211.622 219.326C211.193 223.019 209.962 226.284 207.929 229.12C205.895 231.957 203.246 234.151 199.981 235.703C196.77 237.255 193.158 238.031 189.144 238.031Z" fill="#C7B08B"/>
<path d="M262.119 181.194C262.386 181.194 262.601 181.301 262.761 181.515C262.922 181.676 262.975 181.89 262.922 182.158L261.958 190.025C261.958 190.293 261.851 190.533 261.637 190.747C261.423 190.908 261.182 190.988 260.915 190.988H247.027C246.813 190.988 246.652 191.122 246.545 191.39L241.006 236.426C240.952 236.693 240.818 236.934 240.604 237.148C240.444 237.309 240.23 237.389 239.962 237.389H230.891C230.623 237.389 230.409 237.309 230.249 237.148C230.088 236.934 230.034 236.693 230.088 236.426L235.547 191.39C235.654 191.122 235.547 190.988 235.226 190.988H221.659C221.391 190.988 221.177 190.908 221.017 190.747C220.856 190.533 220.802 190.293 220.856 190.025L221.819 182.158C221.873 181.89 221.98 181.676 222.14 181.515C222.355 181.301 222.595 181.194 222.863 181.194H262.119Z" fill="#C7B08B"/>
<path d="M280.989 238.272C275.423 238.272 270.981 236.72 267.663 233.616C264.398 230.458 262.766 226.257 262.766 221.012C262.766 220.049 262.846 219.005 263.007 217.881L265.094 200.702C265.576 196.742 266.86 193.236 268.947 190.186C271.035 187.135 273.711 184.78 276.975 183.121C280.293 181.408 283.986 180.552 288.054 180.552C293.673 180.552 298.115 182.104 301.38 185.208C304.698 188.312 306.357 192.433 306.357 197.571C306.357 198.588 306.277 199.632 306.116 200.702L304.029 217.881C303.547 221.895 302.263 225.454 300.176 228.558C298.088 231.609 295.386 233.99 292.068 235.703C288.749 237.416 285.057 238.272 280.989 238.272ZM282.193 228.558C285.083 228.558 287.492 227.622 289.418 225.749C291.399 223.875 292.603 221.387 293.031 218.283L295.198 200.622C295.252 200.247 295.279 199.685 295.279 198.936C295.279 196.26 294.529 194.146 293.031 192.594C291.532 191.042 289.472 190.266 286.849 190.266C284.013 190.266 281.605 191.229 279.624 193.156C277.644 195.029 276.467 197.518 276.092 200.622L273.925 218.283C273.871 218.657 273.844 219.219 273.844 219.969C273.844 222.591 274.594 224.678 276.092 226.23C277.591 227.782 279.624 228.558 282.193 228.558Z" fill="#C7B08B"/>
<path d="M340.759 237.389C340.278 237.389 339.956 237.148 339.796 236.666L332.812 214.429C332.705 214.215 332.544 214.108 332.33 214.108H325.105C324.837 214.108 324.704 214.242 324.704 214.51L321.974 236.426C321.921 236.693 321.787 236.934 321.573 237.148C321.412 237.309 321.198 237.389 320.931 237.389H311.779C311.511 237.389 311.297 237.309 311.137 237.148C310.976 236.934 310.923 236.693 310.976 236.426L317.639 182.158C317.693 181.89 317.8 181.676 317.96 181.515C318.174 181.301 318.415 181.194 318.683 181.194H341C345.549 181.194 349.135 182.479 351.757 185.048C354.38 187.617 355.691 191.069 355.691 195.404C355.691 195.939 355.637 196.849 355.53 198.133C355.102 201.772 353.844 204.903 351.757 207.526C349.67 210.094 346.994 211.914 343.729 212.984C343.408 213.091 343.301 213.279 343.408 213.546L351.195 236.265C351.249 236.372 351.276 236.506 351.276 236.666C351.276 237.148 350.981 237.389 350.393 237.389H340.759ZM327.915 190.908C327.808 190.908 327.701 190.962 327.594 191.069C327.54 191.122 327.513 191.202 327.513 191.309L325.828 205.037C325.828 205.305 325.935 205.438 326.149 205.438H336.344C338.752 205.438 340.759 204.689 342.365 203.191C343.97 201.638 344.773 199.658 344.773 197.25C344.773 195.323 344.158 193.798 342.927 192.674C341.749 191.497 340.171 190.908 338.19 190.908H327.915Z" fill="#C7B08B"/>
<path d="M104.025 298.806C103.723 298.806 103.521 298.671 103.42 298.403L101.404 292.05C101.37 291.949 101.303 291.898 101.202 291.898H86.1261C86.0253 291.898 85.9581 291.949 85.9244 292.05L83.9076 298.403C83.8068 298.671 83.6051 298.806 83.3026 298.806H80.5798C80.2101 298.806 80.0756 298.621 80.1765 298.251L91.3195 263.915C91.4203 263.646 91.622 263.511 91.9245 263.511H95.3531C95.6557 263.511 95.8573 263.646 95.9582 263.915L107.152 298.251L107.202 298.453C107.202 298.688 107.051 298.806 106.748 298.806H104.025ZM86.9329 288.722C86.8992 288.789 86.8992 288.856 86.9329 288.923C87.0001 288.957 87.0673 288.974 87.1345 288.974H100.143C100.21 288.974 100.261 288.957 100.294 288.923C100.362 288.856 100.378 288.789 100.345 288.722L93.7901 268.15C93.7565 268.083 93.706 268.049 93.6388 268.049C93.5716 268.049 93.5212 268.083 93.4876 268.15L86.9329 288.722Z" fill="black"/>
<path d="M121.291 298.806C120.955 298.806 120.786 298.638 120.786 298.302V264.016C120.786 263.679 120.955 263.511 121.291 263.511H123.862C124.198 263.511 124.366 263.679 124.366 264.016V298.302C124.366 298.638 124.198 298.806 123.862 298.806H121.291Z" fill="black"/>
<path d="M168.232 299.209C164.433 299.209 161.425 298.352 159.206 296.638C157.021 294.924 155.929 292.638 155.929 289.781V288.218C155.929 287.881 156.097 287.713 156.433 287.713H158.904C159.24 287.713 159.408 287.881 159.408 288.218V289.579C159.408 291.529 160.215 293.108 161.828 294.318C163.442 295.495 165.677 296.083 168.534 296.083C171.122 296.083 173.089 295.545 174.433 294.47C175.778 293.36 176.45 291.898 176.45 290.083C176.45 288.907 176.131 287.898 175.492 287.058C174.887 286.218 173.929 285.428 172.618 284.688C171.341 283.949 169.526 283.091 167.173 282.117C164.652 281.108 162.685 280.234 161.274 279.495C159.895 278.722 158.769 277.747 157.895 276.57C157.055 275.36 156.635 273.848 156.635 272.032C156.635 269.209 157.61 267.024 159.559 265.478C161.542 263.898 164.248 263.108 167.677 263.108C171.408 263.108 174.349 263.982 176.501 265.73C178.652 267.478 179.728 269.797 179.728 272.688V273.797C179.728 274.133 179.559 274.301 179.223 274.301H176.702C176.366 274.301 176.198 274.133 176.198 273.797V272.89C176.198 270.94 175.425 269.343 173.879 268.1C172.366 266.856 170.248 266.234 167.526 266.234C165.139 266.234 163.307 266.721 162.03 267.696C160.753 268.671 160.114 270.083 160.114 271.932C160.114 273.142 160.416 274.15 161.021 274.957C161.66 275.73 162.551 276.419 163.694 277.024C164.87 277.596 166.669 278.352 169.089 279.293C171.543 280.301 173.509 281.243 174.988 282.117C176.501 282.991 177.711 284.066 178.618 285.344C179.559 286.587 180.03 288.117 180.03 289.932C180.03 292.755 178.988 295.008 176.904 296.688C174.82 298.369 171.929 299.209 168.232 299.209Z" fill="black"/>
<path d="M214.745 263.511C215.081 263.511 215.249 263.679 215.249 264.016V266.184C215.249 266.52 215.081 266.688 214.745 266.688H204.862C204.728 266.688 204.661 266.755 204.661 266.89V298.302C204.661 298.638 204.493 298.806 204.156 298.806H201.585C201.249 298.806 201.081 298.638 201.081 298.302V266.89C201.081 266.755 201.014 266.688 200.879 266.688H191.4C191.064 266.688 190.896 266.52 190.896 266.184V264.016C190.896 263.679 191.064 263.511 191.4 263.511H214.745Z" fill="black"/>
<path d="M240.829 299.209C238.476 299.209 236.392 298.739 234.577 297.797C232.762 296.856 231.35 295.545 230.342 293.865C229.333 292.15 228.829 290.167 228.829 287.915V264.016C228.829 263.679 228.997 263.511 229.333 263.511H231.905C232.241 263.511 232.409 263.679 232.409 264.016V288.016C232.409 290.402 233.182 292.352 234.728 293.865C236.275 295.344 238.308 296.083 240.829 296.083C243.35 296.083 245.384 295.344 246.93 293.865C248.476 292.352 249.249 290.402 249.249 288.016V264.016C249.249 263.679 249.418 263.511 249.754 263.511H252.325C252.661 263.511 252.829 263.679 252.829 264.016V287.915C252.829 290.167 252.325 292.15 251.317 293.865C250.342 295.545 248.947 296.856 247.132 297.797C245.317 298.739 243.216 299.209 240.829 299.209Z" fill="black"/>
<path d="M269.49 298.806C269.154 298.806 268.986 298.638 268.986 298.302V264.016C268.986 263.679 269.154 263.511 269.49 263.511H281.39C284.717 263.511 287.356 264.385 289.306 266.133C291.289 267.881 292.28 270.251 292.28 273.243V289.075C292.28 292.066 291.289 294.436 289.306 296.184C287.356 297.932 284.717 298.806 281.39 298.806H269.49ZM272.566 295.478C272.566 295.613 272.633 295.68 272.768 295.68H281.541C283.726 295.68 285.457 295.041 286.734 293.764C288.045 292.487 288.701 290.772 288.701 288.621V273.747C288.701 271.562 288.062 269.831 286.785 268.553C285.507 267.276 283.759 266.637 281.541 266.637H272.768C272.633 266.637 272.566 266.705 272.566 266.839V295.478Z" fill="black"/>
<path d="M307.717 298.806C307.381 298.806 307.213 298.638 307.213 298.302V264.016C307.213 263.679 307.381 263.511 307.717 263.511H310.289C310.625 263.511 310.793 263.679 310.793 264.016V298.302C310.793 298.638 310.625 298.806 310.289 298.806H307.717Z" fill="black"/>
<path d="M338.211 299.209C335.825 299.209 333.724 298.722 331.909 297.747C330.094 296.772 328.682 295.411 327.673 293.663C326.699 291.881 326.211 289.831 326.211 287.512V274.806C326.211 272.486 326.699 270.453 327.673 268.705C328.682 266.923 330.094 265.545 331.909 264.57C333.724 263.595 335.825 263.108 338.211 263.108C340.598 263.108 342.699 263.595 344.514 264.57C346.363 265.545 347.775 266.923 348.749 268.705C349.758 270.453 350.262 272.486 350.262 274.806V287.512C350.262 289.831 349.758 291.881 348.749 293.663C347.775 295.411 346.363 296.772 344.514 297.747C342.699 298.722 340.598 299.209 338.211 299.209ZM338.211 296.134C340.766 296.134 342.817 295.36 344.363 293.814C345.909 292.268 346.682 290.218 346.682 287.663V274.755C346.682 272.201 345.909 270.15 344.363 268.604C342.817 267.024 340.766 266.234 338.211 266.234C335.69 266.234 333.657 267.024 332.111 268.604C330.564 270.15 329.791 272.201 329.791 274.755V287.663C329.791 290.218 330.564 292.268 332.111 293.814C333.657 295.36 335.69 296.134 338.211 296.134Z" fill="black"/>
<defs>
<linearGradient id="paint0_linear_130_251" x1="66.3522" y1="250.852" x2="168.274" y2="-55.2609" gradientUnits="userSpaceOnUse">
<stop stop-color="#D6BF9A"/>
<stop offset="1" stop-color="#745E39"/>
</linearGradient>
</defs>
</svg>
